<?xml version="1.0" encoding="UTF-8" ?>
<!DOCTYPE svg PUBLIC "-//W3C//DTD SVG 1.1//EN" "http://www.w3.org/Graphics/SVG/1.1/DTD/svg11.dtd">
<svg width="299pt" height="110pt" viewBox="0 0 1535 564" version="1.1" xmlns="http://www.w3.org/2000/svg">
<path fill="#74381e" opacity="1.00" d=" M 899.32 0.00 L 902.54 0.00 C 905.97 0.79 909.87 2.08 911.51 5.51 C 913.26 9.44 911.90 13.81 910.79 17.72 C 895.05 67.50 883.60 118.91 861.51 166.46 C 858.56 173.08 854.95 179.39 851.98 186.00 C 850.92 188.79 849.49 192.14 851.10 195.00 C 852.84 197.47 856.08 198.06 858.85 198.61 C 867.84 199.96 876.95 200.21 886.02 200.37 C 924.22 200.64 961.87 193.00 999.03 184.93 C 1033.59 177.40 1068.71 172.42 1104.02 170.30 C 1154.68 166.77 1205.45 172.50 1256.11 169.11 C 1274.93 168.08 1293.56 165.13 1312.07 161.67 C 1316.50 161.02 1321.68 159.62 1325.63 162.51 C 1330.54 166.97 1329.39 176.54 1322.80 178.84 C 1314.95 181.61 1306.59 182.64 1298.45 184.26 C 1271.56 188.89 1244.20 190.60 1216.93 189.99 C 1199.29 189.43 1181.67 188.34 1164.01 188.44 C 1101.46 188.27 1039.02 195.62 977.85 208.51 C 965.14 211.27 952.41 214.04 939.51 215.78 C 915.53 219.14 891.20 220.06 867.05 218.26 C 864.23 218.22 860.96 217.71 858.64 219.67 C 856.62 221.53 856.32 224.45 855.92 227.00 C 850.24 276.42 833.50 323.64 815.75 369.82 C 814.04 373.60 812.68 377.73 809.75 380.77 C 806.13 384.47 799.42 383.49 796.42 379.50 C 794.48 376.76 794.25 373.27 794.14 370.04 C 793.71 344.50 796.37 318.98 801.15 293.91 C 804.39 275.88 809.44 258.25 813.60 240.43 C 807.75 243.40 801.83 246.29 795.65 248.51 C 787.41 251.43 778.31 253.77 769.66 251.27 C 762.24 249.13 757.10 242.58 754.30 235.67 C 749.66 224.23 748.46 211.77 747.67 199.56 C 745.79 199.69 743.59 199.59 742.56 201.48 C 738.67 207.18 733.57 211.89 728.64 216.67 C 717.59 226.98 704.78 236.12 689.98 239.99 C 681.85 242.19 672.44 240.72 666.41 234.52 C 656.70 224.84 653.95 210.87 649.87 198.30 C 640.97 206.61 632.45 215.35 623.07 223.13 C 612.25 231.66 599.88 239.42 585.87 240.84 C 575.78 241.95 565.48 237.84 558.72 230.33 C 548.70 219.69 545.00 205.16 540.85 191.58 C 516.17 205.70 489.13 215.74 461.11 220.70 C 422.16 227.53 382.31 228.15 342.98 224.63 C 325.60 223.15 308.35 220.45 290.96 218.98 C 268.61 217.02 245.89 216.68 223.77 220.90 C 216.04 222.40 207.92 225.58 203.43 232.42 C 201.37 235.26 200.33 239.35 196.74 240.67 C 190.77 242.52 182.62 237.86 183.61 230.98 C 184.75 222.77 190.07 215.53 196.77 210.87 C 205.28 205.05 215.54 202.63 225.54 200.79 C 246.27 197.20 267.27 200.21 288.02 202.02 C 317.33 204.74 346.63 207.91 376.06 209.17 C 414.02 210.65 452.57 207.12 488.70 194.87 C 503.27 190.08 517.30 183.59 530.21 175.29 C 534.34 172.75 538.16 169.71 542.41 167.36 C 545.42 165.75 549.35 164.56 552.45 166.60 C 555.81 168.91 557.13 173.03 558.25 176.76 C 560.77 186.14 562.79 195.82 567.50 204.42 C 570.80 210.55 575.82 216.63 582.98 218.06 C 590.48 219.56 597.82 215.98 603.87 211.86 C 618.77 201.31 631.07 187.71 643.82 174.78 C 646.50 172.14 648.69 168.99 651.77 166.77 C 655.41 164.23 660.48 165.59 663.56 168.41 C 666.43 171.12 666.73 175.31 667.07 178.99 C 667.94 190.76 670.16 202.72 675.84 213.19 C 677.99 217.23 681.94 221.22 686.94 220.52 C 693.09 219.63 698.09 215.55 702.97 212.01 C 717.84 200.63 729.46 185.80 742.28 172.30 C 746.42 168.03 748.92 162.36 753.55 158.54 C 759.03 153.78 769.04 157.11 770.90 164.00 C 771.93 170.54 768.03 176.45 767.33 182.83 C 765.94 194.51 763.28 206.33 765.24 218.10 C 766.27 224.29 769.61 230.81 775.80 233.13 C 781.77 235.37 788.29 232.81 793.05 229.06 C 811.38 214.62 825.30 195.17 835.08 174.11 C 840.76 161.76 845.31 148.93 850.26 136.27 C 865.60 95.87 879.71 54.97 891.62 13.42 C 893.15 8.54 893.76 2.04 899.32 0.00 M 837.30 233.93 C 829.63 252.82 824.49 272.81 822.53 293.12 C 830.44 274.31 835.80 254.31 837.30 233.93 Z" />
<path fill="#74381e" opacity="1.00" d=" M 343.44 398.58 C 352.65 396.43 362.48 400.03 368.55 407.17 C 367.18 409.42 365.78 411.64 364.32 413.83 C 362.23 410.32 359.63 406.81 355.69 405.26 C 349.47 402.72 341.28 403.38 336.66 408.67 C 332.74 412.97 332.41 419.79 335.25 424.75 C 342.93 435.81 357.82 438.35 366.39 448.52 C 371.96 455.30 371.35 465.59 366.80 472.75 C 362.07 480.34 352.60 483.50 344.03 483.38 C 335.77 483.44 327.75 479.56 322.55 473.17 C 323.67 470.42 324.93 467.73 326.28 465.09 C 328.80 470.42 333.36 474.80 339.03 476.57 C 345.02 478.37 351.95 477.80 357.22 474.28 C 365.38 469.08 366.14 455.57 358.49 449.59 C 350.37 443.16 340.66 439.02 332.83 432.19 C 329.06 428.88 326.76 423.96 326.80 418.92 C 326.49 409.30 334.16 400.48 343.44 398.58 Z" />
<path fill="#74381e" opacity="1.00" d=" M 452.49 398.69 C 463.75 397.11 475.93 398.13 485.79 404.21 C 493.09 408.63 498.56 415.82 501.04 423.97 C 503.80 432.97 503.98 442.66 502.40 451.90 C 500.74 461.32 495.74 470.31 487.84 475.88 C 478.75 482.49 466.99 484.07 456.04 483.15 C 446.73 482.41 437.36 478.98 430.73 472.23 C 423.75 465.35 420.43 455.57 419.69 445.96 C 418.82 435.14 420.11 423.55 426.37 414.38 C 432.25 405.64 442.16 400.14 452.49 398.69 M 451.44 404.62 C 444.08 406.39 436.99 410.43 432.94 416.98 C 426.68 426.99 425.80 439.47 427.75 450.88 C 429.24 460.00 434.21 469.02 442.59 473.45 C 453.54 479.18 467.17 479.49 478.41 474.39 C 484.33 471.73 489.12 466.82 491.85 460.95 C 496.14 451.84 496.76 441.37 495.29 431.52 C 493.94 422.98 490.01 414.35 482.63 409.42 C 473.58 403.39 461.88 402.14 451.44 404.62 Z" />
<path fill="#74381e" opacity="1.00" d=" M 874.56 398.78 C 886.31 397.01 899.13 398.09 909.29 404.74 C 916.75 409.52 922.06 417.29 924.26 425.84 C 926.53 434.71 926.62 444.11 924.83 453.07 C 922.99 462.24 917.86 470.84 910.09 476.17 C 900.88 482.65 889.10 484.11 878.13 483.09 C 868.86 482.27 859.57 478.71 853.06 471.89 C 846.33 465.05 843.12 455.48 842.38 446.07 C 841.50 435.38 842.72 423.96 848.76 414.81 C 854.48 406.00 864.28 400.36 874.56 398.78 M 874.46 404.52 C 869.84 405.68 865.30 407.50 861.52 410.45 C 855.70 414.93 852.38 421.88 850.74 428.90 C 848.98 436.83 849.15 445.14 850.86 453.07 C 852.68 461.44 857.62 469.48 865.38 473.52 C 876.37 479.19 890.02 479.49 901.25 474.31 C 906.98 471.70 911.62 466.98 914.34 461.32 C 918.72 452.29 919.41 441.86 918.03 432.03 C 916.78 423.38 912.90 414.60 905.48 409.54 C 896.52 403.46 884.87 402.17 874.46 404.52 Z" />
<path fill="#74381e" opacity="1.00" d=" M 0.00 399.58 C 1.60 399.58 3.21 399.60 4.81 399.63 C 17.63 424.27 30.42 448.93 43.33 473.53 C 56.10 448.87 68.77 424.17 81.60 399.55 C 83.16 399.57 84.72 399.59 86.28 399.62 C 86.28 427.02 86.29 454.42 86.27 481.81 C 84.07 481.81 81.87 481.81 79.66 481.81 C 79.62 460.33 79.70 438.85 79.63 417.37 C 68.07 438.75 56.79 460.29 45.43 481.78 C 43.49 481.79 41.54 481.79 39.60 481.77 C 28.52 460.38 17.32 439.06 6.17 417.71 C 6.13 439.08 6.18 460.44 6.15 481.81 C 4.10 481.81 2.05 481.81 0.00 481.81 L 0.00 399.58 Z" />
<path fill="#74381e" opacity="1.00" d=" M 134.43 481.82 C 146.60 454.41 158.72 426.99 170.90 399.59 C 172.54 399.58 174.18 399.59 175.82 399.61 C 188.70 427.02 201.65 454.40 214.52 481.82 C 212.06 481.81 209.61 481.81 207.16 481.81 C 202.48 471.82 197.84 461.81 193.16 451.81 C 180.44 451.81 167.71 451.81 154.99 451.82 C 150.79 461.79 146.51 471.73 142.41 481.75 C 139.75 481.82 137.09 481.81 134.43 481.82 M 173.20 408.94 C 167.87 421.36 162.62 433.81 157.34 446.24 C 168.41 446.25 179.48 446.26 190.56 446.24 C 184.78 433.80 179.04 421.35 173.20 408.94 Z" />
<path fill="#74381e" opacity="1.00" d=" M 262.79 399.60 C 264.98 399.59 267.17 399.59 269.37 399.60 C 269.38 427.00 269.39 454.41 269.36 481.82 C 267.17 481.81 264.98 481.81 262.80 481.82 C 262.76 454.41 262.78 427.00 262.79 399.60 Z" />
<path fill="#74381e" opacity="1.00" d=" M 559.15 399.59 C 561.35 399.59 563.56 399.60 565.77 399.65 C 584.90 423.61 604.16 447.46 623.41 471.32 C 623.49 447.41 623.40 423.50 623.46 399.59 C 625.49 399.59 627.52 399.58 629.57 399.58 C 629.63 427.00 629.57 454.41 629.60 481.82 C 627.49 481.80 625.40 481.79 623.31 481.76 C 604.04 457.72 584.81 433.64 565.34 409.76 C 565.34 433.78 565.36 457.80 565.33 481.82 C 563.27 481.81 561.21 481.81 559.16 481.81 C 559.15 454.40 559.17 427.00 559.15 399.59 Z" />
<path fill="#74381e" opacity="1.00" d=" M 757.60 399.60 C 770.77 399.59 783.95 399.59 797.12 399.60 C 797.11 401.40 797.12 403.21 797.12 405.03 C 786.14 405.05 775.16 405.01 764.18 405.04 C 764.19 415.74 764.18 426.45 764.19 437.15 C 773.85 437.17 783.52 437.15 793.19 437.16 C 793.22 438.95 793.24 440.73 793.28 442.53 C 783.58 442.75 773.88 442.56 764.19 442.63 C 764.19 455.70 764.19 468.77 764.18 481.84 C 761.94 481.83 759.71 481.78 757.48 481.67 C 757.74 454.32 757.51 426.96 757.60 399.60 Z" />
<path fill="#74381e" opacity="1.00" d=" M 981.85 399.61 C 983.96 399.59 986.08 399.58 988.21 399.55 C 1007.59 423.37 1026.69 447.42 1046.05 471.26 C 1046.15 447.37 1046.06 423.48 1046.09 399.59 C 1048.14 399.59 1050.20 399.59 1052.27 399.60 C 1052.29 427.00 1052.29 454.40 1052.28 481.81 C 1050.21 481.81 1048.16 481.81 1046.12 481.82 C 1026.73 457.78 1007.39 433.69 988.03 409.63 C 987.94 433.69 988.04 457.76 987.98 481.82 C 985.93 481.81 983.88 481.81 981.85 481.81 C 981.84 454.41 981.84 427.01 981.85 399.61 Z" />
<path fill="#74381e" opacity="1.00" d=" M 1114.19 399.66 C 1125.45 399.60 1136.72 399.41 1147.97 399.83 C 1157.46 400.21 1167.53 402.68 1174.33 409.73 C 1182.22 417.97 1185.04 429.87 1184.73 441.01 C 1184.56 452.83 1180.11 465.10 1170.84 472.79 C 1162.83 479.43 1152.13 481.46 1142.00 481.77 C 1132.75 481.87 1123.50 481.78 1114.25 481.81 C 1114.21 454.43 1114.33 427.04 1114.19 399.66 M 1120.85 405.04 C 1120.84 428.81 1120.84 452.59 1120.85 476.37 C 1133.22 475.94 1146.04 477.85 1157.99 473.69 C 1166.79 470.70 1173.26 462.78 1175.69 453.95 C 1177.91 445.88 1177.99 437.27 1176.52 429.06 C 1174.95 420.68 1170.18 412.46 1162.42 408.49 C 1156.70 405.77 1150.24 405.31 1144.01 405.09 C 1136.29 404.96 1128.57 405.06 1120.85 405.04 Z" />
<path fill="#74381e" opacity="1.00" d=" M 1263.22 399.62 C 1264.85 399.59 1266.49 399.58 1268.15 399.59 C 1281.08 426.99 1293.99 454.40 1306.90 481.81 C 1304.40 481.81 1301.92 481.81 1299.45 481.76 C 1294.79 471.74 1290.26 461.65 1285.37 451.73 C 1272.65 451.98 1259.92 451.63 1247.21 451.91 C 1243.17 461.93 1238.82 471.82 1234.69 481.80 C 1232.06 481.81 1229.43 481.81 1226.82 481.82 C 1238.91 454.40 1251.13 427.03 1263.22 399.62 M 1265.52 408.91 C 1260.30 421.37 1254.95 433.78 1249.71 446.24 C 1260.77 446.26 1271.82 446.24 1282.89 446.25 C 1277.14 433.78 1271.40 421.31 1265.52 408.91 Z" />
<path fill="#74381e" opacity="1.00" d=" M 1355.12 399.58 C 1357.33 399.59 1359.56 399.60 1361.80 399.68 C 1380.89 423.59 1400.05 447.46 1419.37 471.19 C 1419.48 447.32 1419.34 423.45 1419.44 399.58 C 1421.45 399.58 1423.49 399.58 1425.54 399.59 C 1425.60 426.99 1425.53 454.40 1425.57 481.81 C 1423.48 481.80 1421.41 481.80 1419.35 481.79 C 1400.02 457.74 1380.74 433.65 1361.31 409.70 C 1361.31 433.73 1361.32 457.77 1361.30 481.81 C 1359.23 481.81 1357.17 481.81 1355.13 481.82 C 1355.11 454.40 1355.13 426.99 1355.12 399.58 Z" />
<path fill="#74381e" opacity="1.00" d=" M 1473.23 405.02 C 1473.22 403.19 1473.26 401.36 1473.33 399.54 C 1493.89 399.66 1514.44 399.56 1535.00 399.59 L 1535.00 405.03 C 1525.64 405.04 1516.29 405.02 1506.94 405.04 C 1506.93 430.63 1506.95 456.22 1506.93 481.82 C 1504.72 481.81 1502.52 481.81 1500.34 481.80 C 1500.35 456.21 1500.35 430.62 1500.34 405.04 C 1491.30 405.02 1482.26 405.05 1473.23 405.02 Z" />
<path fill="#74381e" opacity="1.00" d=" M 592.72 521.73 C 594.23 520.75 596.07 518.97 597.96 520.25 C 601.06 522.12 604.01 524.27 606.78 526.61 C 602.92 525.67 599.84 523.04 596.30 521.40 C 593.27 523.31 590.20 525.19 586.91 526.63 C 588.30 524.43 590.71 523.26 592.72 521.73 Z" />
<path fill="#74381e" opacity="1.00" d=" M 535.17 527.22 C 539.40 526.74 543.75 526.76 547.97 527.42 C 552.55 528.39 557.41 531.88 557.47 536.99 C 557.66 540.86 554.33 543.56 551.18 545.08 C 546.63 547.25 541.46 546.41 536.60 546.56 C 536.58 552.29 536.60 558.02 536.59 563.75 C 535.94 563.74 534.65 563.72 534.00 563.71 C 534.19 551.85 533.75 539.96 534.21 528.11 C 534.45 527.88 534.93 527.44 535.17 527.22 M 536.60 528.80 C 536.58 534.19 536.59 539.59 536.60 544.99 C 541.75 544.67 547.60 546.17 552.09 542.90 C 555.39 540.64 556.42 535.47 553.45 532.52 C 549.06 528.06 542.32 528.74 536.60 528.80 Z" />
<path fill="#74381e" opacity="1.00" d=" M 592.66 531.73 C 593.55 529.69 594.77 527.82 596.06 526.02 C 598.98 528.71 600.30 532.52 602.00 536.01 C 606.48 545.34 611.01 554.64 615.44 564.00 L 613.21 564.00 C 611.45 561.22 610.01 558.27 608.49 555.36 C 600.51 555.34 592.53 555.30 584.56 555.39 C 583.18 558.28 581.84 561.20 580.27 564.00 L 578.00 564.00 C 582.80 553.20 587.84 542.51 592.66 531.73 M 585.34 553.64 C 592.83 553.67 600.31 553.65 607.80 553.65 C 603.89 545.67 600.02 537.67 596.07 529.71 C 592.46 537.67 588.93 545.67 585.34 553.64 Z" />
<path fill="#74381e" opacity="1.00" d=" M 634.48 527.13 C 641.33 526.84 648.19 527.10 655.05 526.97 C 657.83 527.01 660.82 526.60 663.36 528.06 C 658.91 528.87 654.37 528.53 649.88 528.55 C 649.81 540.37 649.99 552.18 649.78 564.00 L 647.57 564.00 C 647.40 552.22 647.55 540.44 647.49 528.66 C 643.50 528.52 639.48 528.90 635.53 528.40 C 635.26 528.08 634.74 527.44 634.48 527.13 Z" />
<path fill="#74381e" opacity="1.00" d=" M 686.91 526.84 C 687.53 526.84 688.75 526.84 689.37 526.85 C 689.36 539.23 689.42 551.61 689.34 564.00 L 687.21 564.00 C 686.51 551.64 687.09 539.23 686.91 526.84 Z" />
<path fill="#74381e" opacity="1.00" d=" M 718.28 530.21 C 723.47 526.04 730.69 525.60 736.92 527.29 C 739.05 527.93 741.89 528.26 742.59 530.79 C 737.54 529.39 732.36 527.66 727.05 528.49 C 723.76 529.01 720.09 530.43 718.63 533.66 C 717.37 536.56 719.15 539.84 721.70 541.35 C 726.90 544.47 733.42 544.27 738.59 547.47 C 741.97 549.52 743.88 554.13 741.86 557.78 C 739.71 561.97 734.76 563.20 730.51 564.00 L 724.75 564.00 C 721.29 562.85 715.74 563.65 714.48 559.43 C 721.31 561.83 729.41 564.14 736.14 560.25 C 739.78 558.39 741.39 552.84 738.13 549.91 C 732.50 545.11 723.95 546.48 718.38 541.61 C 714.97 538.85 714.67 532.92 718.28 530.21 Z" />
<path fill="#74381e" opacity="1.00" d=" M 769.29 530.34 C 774.40 526.13 781.59 525.59 787.82 527.21 C 790.04 527.88 792.86 528.21 793.88 530.69 C 787.01 528.91 779.03 526.40 772.51 530.57 C 769.22 532.36 768.32 537.16 771.09 539.84 C 776.57 545.21 785.62 543.50 791.23 548.67 C 794.19 551.32 795.06 556.15 792.23 559.23 C 789.93 562.72 785.40 562.52 781.95 564.00 L 777.12 564.00 C 773.33 562.96 767.20 563.92 765.60 559.45 C 772.47 561.78 780.55 564.16 787.31 560.25 C 791.02 558.38 792.62 552.67 789.18 549.79 C 783.50 545.09 774.96 546.46 769.44 541.51 C 766.20 538.75 765.91 533.09 769.29 530.34 Z" />
<path fill="#74381e" opacity="1.00" d=" M 820.28 527.30 C 825.14 526.55 830.07 527.14 834.97 526.95 C 838.22 527.03 841.70 526.42 844.68 528.08 C 837.40 529.37 829.94 528.39 822.59 528.68 C 822.54 533.35 822.55 538.03 822.56 542.71 C 829.17 542.73 835.78 542.71 842.40 542.71 C 842.46 543.15 842.60 544.01 842.67 544.45 C 835.96 544.50 829.26 544.45 822.56 544.48 C 822.63 550.33 822.38 556.18 822.73 562.03 C 828.84 561.99 834.96 561.99 841.08 561.96 C 842.52 561.71 843.67 562.70 844.13 564.00 L 843.60 564.00 C 843.24 563.88 842.51 563.65 842.15 563.53 C 836.44 563.80 830.71 563.77 824.98 563.79 C 823.41 563.58 821.48 564.20 820.25 562.98 C 819.69 557.01 820.19 551.00 820.03 545.02 C 820.19 539.12 819.66 533.19 820.28 527.30 Z" />
<path fill="#74381e" opacity="1.00" d=" M 869.71 527.59 C 874.44 526.62 879.32 526.83 884.12 527.15 C 888.69 527.56 893.54 530.40 894.83 535.04 C 895.78 538.50 893.68 542.00 890.73 543.73 C 886.62 546.70 881.33 546.26 876.54 546.67 C 882.85 552.78 890.05 557.89 896.36 564.00 L 893.91 564.00 C 888.54 560.11 883.70 555.56 878.54 551.42 C 876.29 549.46 873.52 547.84 872.34 544.96 C 878.60 544.38 886.11 545.93 891.02 540.98 C 894.36 537.90 892.27 532.23 888.57 530.50 C 883.48 528.04 877.66 529.04 872.22 528.90 C 872.20 540.60 872.25 552.30 872.19 564.00 L 869.69 564.00 C 869.74 551.86 869.71 539.73 869.71 527.59 Z" />
<path fill="#74381e" opacity="1.00" d=" M 921.60 526.84 C 922.21 526.84 923.42 526.84 924.03 526.84 C 923.95 539.23 924.21 551.62 923.88 564.00 L 921.66 564.00 C 921.52 551.61 921.62 539.23 921.60 526.84 Z" />
<path fill="#74381e" opacity="1.00" d=" M 952.30 529.92 C 952.32 528.81 952.15 526.62 953.99 527.03 C 961.30 526.87 968.62 526.99 975.94 527.00 C 975.92 527.42 975.89 528.27 975.87 528.70 C 968.86 528.68 961.85 528.68 954.85 528.70 C 954.83 533.36 954.84 538.03 954.85 542.71 C 961.48 542.71 968.12 542.75 974.76 542.68 C 974.78 543.13 974.83 544.04 974.86 544.49 C 968.18 544.45 961.52 544.47 954.85 544.48 C 954.83 550.32 954.84 556.15 954.85 562.00 C 961.90 562.04 968.95 561.91 976.00 562.08 L 976.01 563.69 C 968.28 563.82 960.56 563.71 952.83 563.75 C 952.45 562.17 952.21 560.56 952.28 558.95 C 952.35 549.27 952.30 539.60 952.30 529.92 Z" />
<path fill="#74381e" opacity="1.00" d=" M 315.03 542.82 C 373.67 542.18 432.33 542.29 490.96 543.68 C 496.72 543.78 502.46 544.33 508.22 544.51 C 421.81 546.65 335.34 546.49 248.93 544.54 C 270.93 543.14 293.00 543.25 315.03 542.82 Z" />
<path fill="#74381e" opacity="1.00" d=" M 1079.05 542.74 C 1136.39 542.19 1193.73 542.34 1251.05 543.75 C 1255.78 543.86 1260.50 544.24 1265.23 544.53 C 1178.84 546.59 1092.38 546.57 1006.00 544.49 C 1030.32 543.20 1054.70 543.08 1079.05 542.74 Z" />
</svg>
